<svg width="11" height="15" viewBox="0 0 11 15" fill="none" xmlns="http://www.w3.org/2000/svg">
<path d="M10.5955 7.85527C10.1387 10.1388 8.49462 11.9656 6.48514 13.153C4.56699 14.2491 2.46618 14.4318 0.27401 14.3404C0.182669 14.3404 0.0913403 14.3404 0 14.3404C0 14.2491 0 14.1578 0 14.0664C0.182681 11.1435 1.1874 8.40331 2.83153 5.93712C4.38431 3.65361 6.48515 1.82681 8.58598 0C10.1388 2.28351 11.1435 5.29774 10.5955 7.85527Z" fill="#AEDC90"/>
<path d="M10.5955 7.85527C10.1387 10.1388 8.49462 11.9656 6.48514 13.153C4.56699 14.2491 2.46618 14.4318 0.27401 14.3404C0.182669 14.3404 0.0913403 14.3404 0 14.3404C9.49939 9.04268 8.58598 0 8.58598 0C10.1388 2.28351 11.1435 5.29774 10.5955 7.85527Z" fill="#7CA661"/>
<path d="M8.2208 4.56701C7.7641 6.75918 6.48533 8.95135 5.02389 10.5955C3.74513 12.0569 2.19233 13.427 0.365529 14.3404C0.274189 14.3404 0.182832 14.3404 0.0914917 14.3404C0.0914917 14.2491 0.0914917 14.1577 0.0914917 14.0664C1.82696 13.0617 3.47109 11.9656 4.74985 10.3214C5.48057 9.40805 6.11996 8.49464 6.668 7.4899C7.21604 6.48515 7.49005 5.48042 7.85541 4.47568C7.94676 4.293 8.2208 4.38433 8.2208 4.56701Z" fill="#39700B"/>
</svg>
