<svg width="46" height="45" viewBox="0 0 46 45" fill="none" xmlns="http://www.w3.org/2000/svg">
<path d="M0.364115 38.6747C0.364115 38.6747 3.5152 39.5326 5.0541 37.2448C6.59299 34.9569 8.71812 28.6653 14.434 26.163C15.8996 25.5195 17.2187 24.9475 18.3179 24.5186C20.8094 23.4461 22.7147 21.3728 23.3743 18.8704C24.0338 16.2251 25.7925 12.7933 30.0428 10.434C37.8838 6.14424 37.3709 3.21291 38.1037 0.567579C38.8365 -2.07775 45.8714 5.21479 45.4318 15.6531C44.9921 26.0915 35.4656 33.8845 35.4656 33.8845C35.4656 33.8845 31.655 39.6756 22.4216 43.1074C13.1882 46.5392 8.425 41.463 6.73955 40.748C5.05409 40.0331 2.26941 42.7499 0.730518 41.606C-0.661815 40.4621 0.364115 38.6747 0.364115 38.6747Z" fill="#D4E86D"/>
<path d="M45.5051 15.6532C45.9448 5.21483 38.8366 -2.14921 38.177 0.567621C37.7373 2.28351 37.7373 4.0709 35.832 6.28726C37.2244 8.07465 38.6167 11.0775 38.9098 15.7962C39.4228 25.2336 30.4825 24.8046 27.9177 28.1649C25.3529 31.5252 26.5254 38.9607 16.9256 40.5336C11.1364 41.4631 7.61895 38.9607 5.64037 36.6014C5.49381 36.8873 5.34724 37.1733 5.20068 37.3878C3.66179 39.6756 0.51072 38.8177 0.51072 38.8177C0.51072 38.8177 -0.515206 40.6051 0.950408 41.749C2.4893 42.8929 5.27396 40.1761 6.95941 40.8911C8.64487 41.606 13.4814 46.6822 22.6415 43.2504C31.8749 39.8186 35.6855 34.0275 35.6855 34.0275C35.6855 34.0275 45.0654 26.0915 45.5051 15.6532Z" fill="#B5CD5A"/>
</svg>
