<svg width="87" height="80" viewBox="0 0 87 80" fill="none" xmlns="http://www.w3.org/2000/svg">
<path d="M30.085 0.790689C26.8069 -0.389412 23.1355 -0.258282 19.923 1.24963C13.1046 4.52769 1.56584 10.8216 0.12349 17.181C-1.90891 26.3596 21.4964 37.9639 44.4429 57.2389C67.3893 76.5139 69.8806 84.2501 74.011 77.6284C78.1413 71.0067 94.5316 53.633 81.5505 33.2435C71.3229 17.1154 42.0171 5.11773 30.085 0.790689Z" fill="#ECB579"/>
<path d="M74.0109 77.6285C76.3055 73.957 82.4683 66.8764 85.1563 57.829C81.5504 61.3037 77.0267 64.1884 71.7162 62.6805C59.1941 59.1402 35.002 29.1787 16.9071 17.9022C11.0066 14.1652 6.22061 12.9196 2.54918 12.9196C1.36908 14.3619 0.516787 15.8043 0.188981 17.2466C-1.84342 26.4252 21.5619 38.0295 44.5084 57.3045C67.3236 76.5139 69.8805 84.2501 74.0109 77.6285Z" fill="#DFA164"/>
<path d="M28.6426 41.3074C31.134 40.5863 33.822 40.5863 36.4444 40.5207C37.1 40.5207 37.7556 40.5207 38.4112 40.5207C49.0322 40.2585 57.6862 36.9149 62.8656 31.0144C63.9801 29.7031 64.9635 28.3263 65.9469 26.9496C66.3403 26.3595 66.7337 25.7695 67.1926 25.1794C68.1105 23.8682 69.1594 22.6225 70.2084 21.3769C69.7495 21.049 69.2906 20.7212 68.8316 20.3934C67.7827 21.6391 66.7992 22.8848 65.8158 24.196C65.4225 24.786 64.9635 25.3761 64.5702 25.9661C63.6523 27.2774 62.6689 28.6541 61.6199 29.8998C56.7684 35.4725 48.5077 38.6195 38.4112 38.8817C37.7556 38.8817 37.1656 38.8817 36.51 38.8817C33.7564 38.8817 31.0028 38.9473 28.2493 39.734C26.7414 40.1929 25.3646 40.783 24.0533 41.5697C24.5778 41.8975 25.0368 42.2909 25.5613 42.6187C26.4791 42.0942 27.5281 41.6353 28.6426 41.3074Z" fill="#F2D0A4"/>
<path d="M16.3826 26.0316C17.5628 26.3594 18.7429 26.6216 19.8574 26.9494C25.5612 28.3918 32.2485 29.5719 38.5423 27.474C43.2627 25.9005 47.1964 22.688 50.7367 19.3443C52.9658 17.312 55.0638 15.1484 57.1617 13.0505C56.6372 12.7882 56.1783 12.4604 55.6538 12.1982C53.687 14.2306 51.6546 16.1974 49.6222 18.0987C46.213 21.2456 42.476 24.3926 38.0178 25.8349C32.1829 27.7362 25.7579 26.6216 20.2508 25.2449C19.0707 24.9826 17.9561 24.6548 16.776 24.327C11.99 23.0813 7.0074 21.7701 1.95919 21.7701C1.63138 21.7701 1.30358 21.7701 0.975769 21.7701C1.30358 22.2946 1.63138 22.8847 2.02475 23.4091C6.87628 23.5403 11.7278 24.7859 16.3826 26.0316Z" fill="#F2D0A4"/>
<path d="M19.7262 35.079C24.25 33.6367 29.0359 33.7023 32.7729 33.8989C33.1007 33.8989 33.4285 33.9645 33.8219 33.9645C36.3132 34.0956 38.8701 34.2268 41.427 33.7023C44.6395 32.9811 47.3931 31.1454 49.95 29.3752C53.9492 26.5561 58.0796 23.4092 61.1609 19.1477C61.8165 18.2298 62.341 17.3775 62.8655 16.3941C62.4066 16.0663 61.9477 15.8041 61.4232 15.5418C60.9642 16.4597 60.4398 17.312 59.7841 18.1643C56.8994 22.2291 52.9002 25.3104 48.9665 27.9984C46.5408 29.703 43.9183 31.4076 40.9681 32.0632C38.6734 32.5877 36.1821 32.4566 33.8219 32.3255C33.4941 32.3255 33.1663 32.2599 32.7729 32.2599C28.9048 32.0632 23.8566 31.9977 19.1362 33.5056C17.6938 33.9645 16.3826 34.5546 15.137 35.2102C15.5959 35.6035 16.1204 35.9314 16.6449 36.3247C17.6283 35.8002 18.6773 35.4068 19.7262 35.079Z" fill="#F2D0A4"/>
<path d="M35.1331 13.3128C32.0517 14.6896 28.1836 14.6896 23.3321 13.3128C18.5461 11.9361 14.0224 9.70697 10.0232 6.75672C9.49868 7.08453 9.03975 7.41233 8.51526 7.74014C12.7767 10.9526 17.6938 13.444 22.8732 14.9519C28.1181 16.4598 32.3795 16.4598 35.8543 14.8863C39.5913 13.1817 42.017 9.96922 44.115 6.49448C43.5905 6.23223 43.066 6.03555 42.5415 5.83887C40.5091 8.9858 38.4112 11.8705 35.1331 13.3128Z" fill="#F2D0A4"/>
<path d="M13.7602 4.46201C17.6939 6.62553 22.0865 8.5268 26.7413 8.98573C28.8393 9.18241 30.6094 9.0513 32.1173 8.46124C34.3464 7.67451 36.2477 5.96991 37.6245 3.67527C37.1 3.47858 36.5755 3.21634 36.051 3.01965C34.8709 4.85537 33.363 6.23216 31.5928 6.82221C30.3472 7.28114 28.8393 7.41225 26.938 7.21557C22.9388 6.8222 19.0707 5.24874 15.5303 3.41302C14.9403 3.80639 14.3502 4.1342 13.7602 4.46201Z" fill="#F2D0A4"/>
<path d="M40.5091 18.0332C33.8219 22.4913 24.7745 23.0814 17.5627 19.5411C15.8581 18.6888 14.1536 17.6398 12.5801 16.5908C9.69539 14.7551 6.74513 12.7883 3.27039 12.0671C2.81146 12.526 2.35253 13.0505 1.95917 13.575C2.28697 13.6406 2.54922 13.6406 2.87702 13.7061C6.02396 14.3617 8.77753 16.1319 11.6622 17.9676C13.3013 19.0166 15.0714 20.1311 16.8416 21.049C24.5778 24.8515 34.2808 24.1959 41.427 19.4099C45.164 16.9186 48.1798 13.3783 50.0811 9.31352C49.5566 9.05128 49.0977 8.85459 48.5732 8.59235C46.803 12.3949 44.0495 15.673 40.5091 18.0332Z" fill="#F2D0A4"/>
<path d="M67.0615 73.6291C69.0939 67.3352 70.9951 61.4347 75.3222 56.8454C76.5023 55.5998 77.8791 54.4852 79.1903 53.3707C79.7148 52.9118 80.2393 52.4528 80.8293 51.9939C82.7961 50.2893 84.6319 48.4536 86.402 46.5523C86.3364 45.8311 86.2053 45.11 86.0742 44.3232C84.1729 46.6179 82.0094 48.7814 79.7148 50.7483C79.1903 51.2072 78.6658 51.6661 78.1413 52.0595C76.7645 53.174 75.3222 54.3541 74.0765 55.6653C69.4872 60.5169 67.4548 66.8763 65.4224 73.1046C65.1602 73.9569 64.8979 74.8092 64.5701 75.6615C65.0291 76.1204 65.488 76.5138 65.9469 76.9072C66.3403 75.7926 66.6681 74.7436 67.0615 73.6291Z" fill="#F2D0A4"/>
<path d="M75.4533 75.4648C75.8467 74.8748 76.3056 74.2847 76.7645 73.6291C76.5023 72.0557 76.3712 70.4166 76.6334 68.8432C77.0923 65.6962 78.7314 62.746 80.4359 60.058C82.2061 57.2388 84.1729 54.4853 86.2709 51.9284C86.3365 51.0105 86.402 50.0927 86.402 49.1093C83.714 52.3218 81.2227 55.6654 78.9936 59.1401C77.1579 62.0248 75.3877 65.1062 74.9288 68.5809C74.6666 70.9411 74.9288 73.2358 75.4533 75.4648Z" fill="#F2D0A4"/>
<path d="M61.4888 64.2538C63.9146 60.9102 66.8648 57.9599 69.7495 55.0752C71.8475 52.9117 74.0765 50.7482 76.0434 48.388C79.1903 44.651 81.6817 40.7174 83.4518 36.587C83.124 35.9314 82.7962 35.3413 82.4028 34.6857C80.6982 39.0128 78.0758 43.3398 74.7322 47.2735C72.7653 49.5681 70.6018 51.7972 68.5038 53.8951C65.6192 56.8454 62.6033 59.8612 60.112 63.2704C58.8664 64.975 57.8174 66.7452 57.0306 68.4497C57.4896 68.8431 57.8829 69.302 58.3419 69.6954C59.1286 67.8597 60.1776 66.024 61.4888 64.2538Z" fill="#F2D0A4"/>
<path d="M51.0645 47.4046C51.8512 47.0112 52.7035 46.6179 53.4903 46.159C58.014 43.9299 62.6688 41.6352 66.537 38.2916C70.2739 35.0791 73.3553 30.8832 75.5188 26.0317C75.1255 25.6383 74.6665 25.2449 74.2076 24.8516C72.1097 29.7031 69.1594 33.8334 65.4224 37.0459C61.6854 40.2584 57.0961 42.4875 52.7035 44.7166C51.9168 45.11 51.0645 45.5033 50.2778 45.9623C46.4097 47.9291 42.476 50.1582 39.1979 53.1084C39.6569 53.4362 40.0502 53.8296 40.5092 54.1574C43.6561 51.4038 47.3931 49.3059 51.0645 47.4046Z" fill="#F2D0A4"/>
<path d="M48.901 60.9758C51.7857 58.2878 55.1293 55.9931 58.3418 53.8296C61.6854 51.535 65.1602 49.1748 68.176 46.3556C72.962 41.8975 76.5023 36.3248 79.9115 30.9487C79.5836 30.4898 79.1903 30.0309 78.7969 29.572C75.3877 35.0135 71.7819 40.7174 67.0615 45.1755C64.1112 47.9291 60.702 50.2893 57.424 52.5184C54.1459 54.7475 50.7367 57.0421 47.7865 59.8612C47.7209 59.9268 47.6553 59.9924 47.5898 60.0579C47.9831 60.3202 48.4421 60.7135 48.901 60.9758C48.8354 61.0413 48.8354 61.0413 48.901 60.9758Z" fill="#F2D0A4"/>
</svg>
